<svg id="visual" viewBox="0 0 900 300" width="900" height="300" xmlns="http://www.w3.org/2000/svg" xmlns:xlink="http://www.w3.org/1999/xlink" version="1.1"><rect x="0" y="0" width="900" height="300" fill="#001220"></rect><path d="M0 121L21.5 119.7C43 118.3 86 115.7 128.8 113.3C171.7 111 214.3 109 257.2 102.5C300 96 343 85 385.8 87.5C428.7 90 471.3 106 514.2 111.8C557 117.7 600 113.3 642.8 109.3C685.7 105.3 728.3 101.7 771.2 97.8C814 94 857 90 878.5 88L900 86L900 0L878.5 0C857 0 814 0 771.2 0C728.3 0 685.7 0 642.8 0C600 0 557 0 514.2 0C471.3 0 428.7 0 385.8 0C343 0 300 0 257.2 0C214.3 0 171.7 0 128.8 0C86 0 43 0 21.5 0L0 0Z" fill="#000428"></path><path d="M0 89L21.5 88.3C43 87.7 86 86.3 128.8 83.8C171.7 81.3 214.3 77.7 257.2 73.8C300 70 343 66 385.8 65C428.7 64 471.3 66 514.2 70C557 74 600 80 642.8 80.7C685.7 81.3 728.3 76.7 771.2 76.5C814 76.3 857 80.7 878.5 82.8L900 85L900 0L878.5 0C857 0 814 0 771.2 0C728.3 0 685.7 0 642.8 0C600 0 557 0 514.2 0C471.3 0 428.7 0 385.8 0C343 0 300 0 257.2 0C214.3 0 171.7 0 128.8 0C86 0 43 0 21.5 0L0 0Z" fill="#00385d"></path><path d="M0 49L21.5 49.2C43 49.3 86 49.7 128.8 49.8C171.7 50 214.3 50 257.2 49.3C300 48.7 343 47.3 385.8 46.3C428.7 45.3 471.3 44.7 514.2 45C557 45.3 600 46.7 642.8 49.5C685.7 52.3 728.3 56.7 771.2 62C814 67.3 857 73.7 878.5 76.8L900 80L900 0L878.5 0C857 0 814 0 771.2 0C728.3 0 685.7 0 642.8 0C600 0 557 0 514.2 0C471.3 0 428.7 0 385.8 0C343 0 300 0 257.2 0C214.3 0 171.7 0 128.8 0C86 0 43 0 21.5 0L0 0Z" fill="#006d92"></path><path d="M0 45L21.5 45.7C43 46.3 86 47.7 128.8 44.8C171.7 42 214.3 35 257.2 36C300 37 343 46 385.8 46.2C428.7 46.3 471.3 37.7 514.2 37.5C557 37.3 600 45.7 642.8 47.3C685.7 49 728.3 44 771.2 39.5C814 35 857 31 878.5 29L900 27L900 0L878.5 0C857 0 814 0 771.2 0C728.3 0 685.7 0 642.8 0C600 0 557 0 514.2 0C471.3 0 428.7 0 385.8 0C343 0 300 0 257.2 0C214.3 0 171.7 0 128.8 0C86 0 43 0 21.5 0L0 0Z" fill="#00a6bf"></path><path d="M0 23L21.5 24.8C43 26.7 86 30.3 128.8 31.8C171.7 33.3 214.3 32.7 257.2 32.7C300 32.7 343 33.3 385.8 32.2C428.7 31 471.3 28 514.2 25.7C557 23.3 600 21.7 642.8 19.8C685.7 18 728.3 16 771.2 17.8C814 19.7 857 25.3 878.5 28.2L900 31L900 0L878.5 0C857 0 814 0 771.2 0C728.3 0 685.7 0 642.8 0C600 0 557 0 514.2 0C471.3 0 428.7 0 385.8 0C343 0 300 0 257.2 0C214.3 0 171.7 0 128.8 0C86 0 43 0 21.5 0L0 0Z" fill="#3ce1dd"></path></svg>